<svg xmlns="http://www.w3.org/2000/svg" xmlns:svg="http://www.w3.org/2000/svg" id="svg3122" width="36" height="12" version="1.1"><metadata id="metadata3127"/><path style="color:#000;fill:#fefef1;fill-opacity:1;fill-rule:nonzero;stroke:none;stroke-width:1.33333324999999991;marker:none;visibility:visible;display:inline;overflow:visible;enable-background:accumulate" id="rect3817-1-9" d="M 17.65625 1 A 5.0000032 5.0000032 0 0 0 13.4375 4 L 13 4 C 12.446001 4 12 4.4460008 12 5 L 12 7 C 12 7.5539992 12.446001 8 13 8 L 13.40625 8 A 5.0000032 5.0000032 0 0 0 22.5625 8 L 23 8 C 23.553999 8 24 7.5539992 24 7 L 24 5 C 24 4.4460008 23.553999 4 23 4 L 22.59375 4 A 5.0000032 5.0000032 0 0 0 17.65625 1 z"/><rect style="color:#000;fill:#fff;fill-opacity:0;fill-rule:nonzero;stroke:none;stroke-width:.99999994;marker:none;visibility:visible;display:inline;overflow:visible;enable-background:accumulate" id="rect3901" width="12" height="12" x="12" y="0"/><path style="color:#000;fill:#000363;fill-opacity:1;fill-rule:nonzero;stroke:none;stroke-width:.74999994000000003;marker:none;visibility:visible;display:inline;overflow:visible;enable-background:accumulate" id="path3903" d="M 17.71875 2 A 3.9999945 3.9999945 0 0 0 14.125 5 L 13.25 5 C 13.1115 5 13 5.1115002 13 5.25 L 13 6.75 C 13 6.8884998 13.1115 7 13.25 7 L 14.15625 7 A 4 4 0 0 0 21.875 7 L 22.75 7 C 22.8885 7 23 6.8884998 23 6.75 L 23 5.25 C 23 5.1115002 22.8885 5 22.75 5 L 21.875 5 A 3.9999945 3.9999945 0 0 0 17.71875 2 z M 17.8125 3.5 A 2.500032 2.500032 0 0 1 20.28125 5 L 15.71875 5 A 2.500032 2.500032 0 0 1 17.8125 3.5 z M 15.71875 7 L 20.28125 7 A 2.500032 2.500032 0 0 1 15.71875 7 z"/><rect style="color:#000;fill:#fefef1;fill-opacity:1;fill-rule:nonzero;stroke:none;stroke-width:1.33333324999999991;marker:none;visibility:visible;display:inline;overflow:visible;enable-background:accumulate" id="rect3806" width="12" height="10" x="24" y="1" rx="2" ry="2"/><rect style="color:#000;fill:#fff;fill-opacity:0;fill-rule:nonzero;stroke:none;stroke-width:.99999994;marker:none;visibility:visible;display:inline;overflow:visible;enable-background:accumulate" id="rect3765" width="12" height="12" x="24" y="0"/><path style="color:#000;fill:#ff5f51;fill-opacity:1;fill-rule:nonzero;stroke:none;stroke-width:1.33333324999999991;marker:none;visibility:visible;display:inline;overflow:visible;enable-background:accumulate" id="rect3025" d="M 26 2 C 25.446 2 25 2.446 25 3 L 25 4 L 30.65625 4 L 27.34375 2 L 26 2 z M 29.34375 2 L 32.65625 4 L 35 4 L 35 3 C 35 2.446 34.554 2 34 2 L 29.34375 2 z M 25 5 L 25 7 L 27.34375 7 L 30.65625 5 L 25 5 z M 32.65625 5 L 29.34375 7 L 35 7 L 35 5 L 32.65625 5 z M 25 8 L 25 9 C 25 9.554 25.446 10 26 10 L 30.65625 10 L 27.34375 8 L 25 8 z M 29.34375 8 L 32.65625 10 L 34 10 C 34.554 10 35 9.554 35 9 L 35 8 L 29.34375 8 z"/><path id="path17112" d="M 5.65625,1 A 5.0000032,5.0000032 0 0 0 1.4375,4 L 1,4 C 0.446001,4 0,4.4460008 0,5 L 0,7 C 0,7.5539992 0.446001,8 1,8 L 1.40625,8 A 5.0000032,5.0000032 0 0 0 10.5625,8 L 11,8 c 0.553999,0 1,-0.4460008 1,-1 L 12,5 C 12,4.4460008 11.553999,4 11,4 L 10.59375,4 A 5.0000032,5.0000032 0 0 0 5.65625,1 z" style="color:#000;fill:#fefef1;fill-opacity:1;fill-rule:nonzero;stroke:none;stroke-width:1.33333325;marker:none;visibility:visible;display:inline;overflow:visible;enable-background:accumulate"/><rect id="rect17114" width="12" height="12" x="0" y="0" style="color:#000;fill:#fff;fill-opacity:0;fill-rule:nonzero;stroke:none;stroke-width:.99999994;marker:none;visibility:visible;display:inline;overflow:visible;enable-background:accumulate"/><path id="path17116" d="M 5.71875,2 A 3.9999945,3.9999945 0 0 0 2.125,5 L 1.25,5 C 1.1115,5 1,5.1115002 1,5.25 l 0,1.5 C 1,6.8884998 1.1115,7 1.25,7 L 2.15625,7 A 4,4 0 0 0 9.875,7 L 10.75,7 C 10.8885,7 11,6.8884998 11,6.75 l 0,-1.5 C 11,5.1115002 10.8885,5 10.75,5 L 9.875,5 A 3.9999945,3.9999945 0 0 0 5.71875,2 z M 5.8125,3.5 A 2.500032,2.500032 0 0 1 8.28125,5 L 3.71875,5 A 2.500032,2.500032 0 0 1 5.8125,3.5 z M 3.71875,7 8.28125,7 a 2.500032,2.500032 0 0 1 -4.5625,0 z" style="color:#000;fill:#000363;fill-opacity:1;fill-rule:nonzero;stroke:none;stroke-width:.74999994;marker:none;visibility:visible;display:inline;overflow:visible;enable-background:accumulate"/></svg>