<svg xmlns="http://www.w3.org/2000/svg" xmlns:svg="http://www.w3.org/2000/svg" id="svg3122" width="18" height="18" version="1.1"><metadata id="metadata3127"/><path style="color:#000;fill:#fefef1;fill-opacity:1;fill-rule:nonzero;stroke:none;stroke-width:.99999994000000003;marker:none;visibility:visible;display:inline;overflow:visible;enable-background:accumulate" id="path3874" d="M 9.21875 1 A 8 8 0 0 0 1.5625 6.03125 C 0.6642031 6.2281959 0 7.0408875 0 8 L 0 10 C 0 10.9695 0.68074219 11.782867 1.59375 11.96875 A 8 8 0 0 0 16.4375 11.96875 C 17.335797 11.771804 18 10.959112 18 10 L 18 8 C 18 7.0305 17.319258 6.2171328 16.40625 6.03125 A 8 8 0 0 0 9.21875 1 z"/><path style="color:#000;fill:#000363;fill-opacity:1;fill-rule:nonzero;stroke:none;stroke-width:.99999994000000003;marker:none;visibility:visible;display:inline;overflow:visible;enable-background:accumulate" id="path3878" d="M 9 3 C 6.0243798 3 3.5667275 5.1585941 3.09375 8 L 2.5 8 C 2.223 8 2 8.223 2 8.5 L 2 9.5 C 2 9.777 2.223 10 2.5 10 L 3.09375 10 C 3.5667275 12.841406 6.0243798 15 9 15 C 11.97562 15 14.433272 12.841406 14.90625 10 L 15.5 10 C 15.777 10 16 9.777 16 9.5 L 16 8.5 C 16 8.223 15.777 8 15.5 8 L 14.90625 8 C 14.433272 5.1585941 11.97562 3 9 3 z M 9 5.5 C 10.587819 5.5 11.915501 6.5510094 12.34375 8 L 5.65625 8 C 6.0844989 6.5510094 7.412181 5.5 9 5.5 z M 5.65625 10 L 12.34375 10 C 11.915501 11.448991 10.587819 12.5 9 12.5 C 7.412181 12.5 6.0844989 11.448991 5.65625 10 z"/><rect style="color:#000;fill:#fff;fill-opacity:0;fill-rule:nonzero;stroke:none;stroke-width:.99999994;marker:none;visibility:visible;display:inline;overflow:visible;enable-background:accumulate" id="rect3880" width="18" height="18" x="0" y="0"/></svg>