<svg xmlns="http://www.w3.org/2000/svg" xmlns:svg="http://www.w3.org/2000/svg" id="svg3122" width="24" height="12" version="1.1"><metadata id="metadata3127"/><path style="color:#000;fill:#fefef1;fill-opacity:1;fill-rule:nonzero;stroke:none;stroke-width:1.33333324999999991;marker:none;visibility:visible;display:inline;overflow:visible;enable-background:accumulate" id="rect3817-1-9" d="M 5.65625 1 A 5.0000028 5.0000028 0 0 0 1.4375 4 L 1 4 C 0.44600079 4 0 4.4460008 0 5 L 0 7 C 0 7.5539992 0.44600079 8 1 8 L 1.40625 8 A 5.0000028 5.0000028 0 0 0 10.5625 8 L 11 8 C 11.553999 8 12 7.5539992 12 7 L 12 5 C 12 4.4460008 11.553999 4 11 4 L 10.59375 4 A 5.0000028 5.0000028 0 0 0 5.65625 1 z"/><rect style="color:#000;fill:#fff;fill-opacity:0;fill-rule:nonzero;stroke:none;stroke-width:.99999994;marker:none;visibility:visible;display:inline;overflow:visible;enable-background:accumulate" id="rect3901" width="12" height="12" x="0" y="0"/><path style="color:#000;fill:#000363;fill-opacity:1;fill-rule:nonzero;stroke:none;stroke-width:.74999994000000003;marker:none;visibility:visible;display:inline;overflow:visible;enable-background:accumulate" id="path3903" d="M 5.71875 2 A 3.9999942 3.9999942 0 0 0 2.125 5 L 1.25 5 C 1.1115002 5 1 5.1115002 1 5.25 L 1 6.75 C 1 6.8884998 1.1115002 7 1.25 7 L 2.15625 7 A 4 4 0 0 0 9.875 7 L 10.75 7 C 10.8885 7 11 6.8884998 11 6.75 L 11 5.25 C 11 5.1115002 10.8885 5 10.75 5 L 9.875 5 A 3.9999942 3.9999942 0 0 0 5.71875 2 z M 5.8125 3.5 A 2.5000314 2.5000314 0 0 1 8.28125 5 L 3.71875 5 A 2.5000314 2.5000314 0 0 1 5.8125 3.5 z M 3.71875 7 L 8.28125 7 A 2.5000314 2.5000314 0 0 1 3.71875 7 z"/><rect style="color:#000;fill:#fefef1;fill-opacity:1;fill-rule:nonzero;stroke:none;stroke-width:1.33333324999999991;marker:none;visibility:visible;display:inline;overflow:visible;enable-background:accumulate" id="rect3806" width="12" height="10" x="12" y="1" rx="2" ry="2"/><rect style="color:#000;fill:#fff;fill-opacity:0;fill-rule:nonzero;stroke:none;stroke-width:.99999994;marker:none;visibility:visible;display:inline;overflow:visible;enable-background:accumulate" id="rect3765" width="12" height="12" x="12" y="0"/><path style="color:#000;fill:#ff5f51;fill-opacity:1;fill-rule:nonzero;stroke:none;stroke-width:1.33333324999999991;marker:none;visibility:visible;display:inline;overflow:visible;enable-background:accumulate" id="rect3025" d="M 14 2 C 13.446 2 13 2.446 13 3 L 13 4 L 18.65625 4 L 15.34375 2 L 14 2 z M 17.34375 2 L 20.65625 4 L 23 4 L 23 3 C 23 2.446 22.554 2 22 2 L 17.34375 2 z M 13 5 L 13 7 L 15.34375 7 L 18.65625 5 L 13 5 z M 20.65625 5 L 17.34375 7 L 23 7 L 23 5 L 20.65625 5 z M 13 8 L 13 9 C 13 9.554 13.446 10 14 10 L 18.65625 10 L 15.34375 8 L 13 8 z M 17.34375 8 L 20.65625 10 L 22 10 C 22.554 10 23 9.554 23 9 L 23 8 L 17.34375 8 z"/></svg>