<svg xmlns="http://www.w3.org/2000/svg" xmlns:svg="http://www.w3.org/2000/svg" id="svg3122" width="12" height="12" version="1.1"><metadata id="metadata3127"/><path style="color:#000;fill:#fefef1;fill-opacity:1;fill-rule:nonzero;stroke:none;stroke-width:1.33333324999999991;marker:none;visibility:visible;display:inline;overflow:visible;enable-background:accumulate" id="rect4074" d="M 5.65625 1 A 5.0000102 5.0000102 0 0 0 1.4375 4 L 1 4 C 0.446 4 0 4.446 0 5 L 0 7 C 0 7.554 0.446 8 1 8 L 1.40625 8 A 5.0000102 5.0000102 0 0 0 10.5625 8 L 11 8 C 11.554 8 12 7.554 12 7 L 12 5 C 12 4.446 11.554 4 11 4 L 10.59375 4 A 5.0000102 5.0000102 0 0 0 5.65625 1 z"/><rect style="color:#000;fill:#fff;fill-opacity:0;fill-rule:nonzero;stroke:none;stroke-width:.99999994;marker:none;visibility:visible;display:inline;overflow:visible;enable-background:accumulate" id="rect4078" width="12" height="12" x="0" y="0"/><path style="color:#000;fill:#000363;fill-opacity:1;fill-rule:nonzero;stroke:none;stroke-width:.74999994000000003;marker:none;visibility:visible;display:inline;overflow:visible;enable-background:accumulate" id="path4080" d="M 5.71875 2 A 4 4 0 0 0 2.125 5 L 1.25 5 C 1.1115 5 1 5.1115 1 5.25 L 1 6.75 C 1 6.8885 1.1115 7 1.25 7 L 2.15625 7 A 4 4 0 0 0 9.875 7 L 10.75 7 C 10.8885 7 11 6.8885 11 6.75 L 11 5.25 C 11 5.1115 10.8885 5 10.75 5 L 9.875 5 A 4 4 0 0 0 5.71875 2 z M 5.8125 3.5 A 2.500035 2.500035 0 0 1 8.28125 5 L 3.71875 5 A 2.500035 2.500035 0 0 1 5.8125 3.5 z M 3.71875 7 L 8.28125 7 A 2.500035 2.500035 0 0 1 3.71875 7 z"/></svg>