<svg xmlns="http://www.w3.org/2000/svg" xmlns:svg="http://www.w3.org/2000/svg" id="svg3122" width="18" height="18" version="1.1"><metadata id="metadata3127"/><rect style="color:#000;fill:#fefef1;fill-opacity:1;fill-rule:nonzero;stroke:none;stroke-width:1.33333324999999991;marker:none;visibility:visible;display:inline;overflow:visible;enable-background:accumulate" id="rect3806-6" width="18" height="14" x="0" y="2" rx="2" ry="2"/><rect style="color:#000;fill:#fff;fill-opacity:0;fill-rule:nonzero;stroke:none;stroke-width:.99999994;marker:none;visibility:visible;display:inline;overflow:visible;enable-background:accumulate" id="rect3787" width="18" height="18" x="0" y="0"/><path style="color:#000;fill:#ff5f51;fill-opacity:1;fill-rule:nonzero;stroke:none;stroke-width:1.33333324999999991;marker:none;visibility:visible;display:inline;overflow:visible;enable-background:accumulate" id="rect3025-0" d="M 3 4 C 2.446 4 2 4.446 2 5 L 2 6.75 L 9.03125 6.75 L 5.5 4 L 3 4 z M 8 4 L 11.53125 6.75 L 16 6.75 L 16 5 C 16 4.446 15.554 4 15 4 L 8 4 z M 2 8 L 2 10 L 6.25 10 L 9.25 8 L 2 8 z M 11.75 8 L 8.75 10 L 16 10 L 16 8 L 11.75 8 z M 2 11.25 L 2 13 C 2 13.554 2.446 14 3 14 L 10 14 L 6.46875 11.25 L 2 11.25 z M 8.96875 11.25 L 12.5 14 L 15 14 C 15.554 14 16 13.554 16 13 L 16 11.25 L 8.96875 11.25 z"/></svg>