<svg xmlns="http://www.w3.org/2000/svg" xmlns:svg="http://www.w3.org/2000/svg" id="svg3122" width="12" height="12" version="1.1"><metadata id="metadata3127"/><rect style="color:#000;fill:#fefef1;fill-opacity:1;fill-rule:nonzero;stroke:none;stroke-width:1.33333324999999991;marker:none;visibility:visible;display:inline;overflow:visible;enable-background:accumulate" id="rect3806" width="12" height="10" x="0" y="1" rx="2" ry="2"/><rect style="color:#000;fill:#fff;fill-opacity:0;fill-rule:nonzero;stroke:none;stroke-width:.99999994;marker:none;visibility:visible;display:inline;overflow:visible;enable-background:accumulate" id="rect3765" width="12" height="12" x="0" y="0"/><path style="color:#000;fill:#ff5f51;fill-opacity:1;fill-rule:nonzero;stroke:none;stroke-width:1.33333324999999991;marker:none;visibility:visible;display:inline;overflow:visible;enable-background:accumulate" id="rect3025" d="M 2 2 C 1.446 2 1 2.446 1 3 L 1 4 L 6.65625 4 L 3.34375 2 L 2 2 z M 5.34375 2 L 8.65625 4 L 11 4 L 11 3 C 11 2.446 10.554 2 10 2 L 5.34375 2 z M 1 5 L 1 7 L 3.34375 7 L 6.65625 5 L 1 5 z M 8.65625 5 L 5.34375 7 L 11 7 L 11 5 L 8.65625 5 z M 1 8 L 1 9 C 1 9.554 1.446 10 2 10 L 6.65625 10 L 3.34375 8 L 1 8 z M 5.34375 8 L 8.65625 10 L 10 10 C 10.554 10 11 9.554 11 9 L 11 8 L 5.34375 8 z"/></svg>