<svg xmlns="http://www.w3.org/2000/svg" xmlns:svg="http://www.w3.org/2000/svg" id="svg3122" width="18" height="18" version="1.1"><metadata id="metadata3127"/><path style="font-size:medium;font-style:normal;font-variant:normal;font-weight:400;font-stretch:normal;text-indent:0;text-align:start;text-decoration:none;line-height:normal;letter-spacing:normal;word-spacing:normal;text-transform:none;direction:ltr;block-progression:tb;writing-mode:lr-tb;text-anchor:start;baseline-shift:baseline;color:#000;fill:#fefef1;fill-opacity:1;fill-rule:nonzero;stroke:none;stroke-width:4;marker:none;visibility:visible;display:inline;overflow:visible;enable-background:accumulate;font-family:Sans;-inkscape-font-specification:Sans" id="path3755" d="M 9.5,0.875 C 8.0166667,0.875 6.523925,1.1028141 5.1875,1.6875 3.851075,2.2721859 2.5302035,3.3005376 2.0625,4.9375 2.0151907,5.1207816 1.9940771,5.3108038 2,5.5 l 0,7 c 5.144e-4,0.313643 0.07613,0.626909 0.21875,0.90625 l 0.5,1 c 0.190262,0.373712 0.5012875,0.684738 0.875,0.875 l 1,0.5 C 4.8730913,15.92387 5.1863574,15.999486 5.5,16 l 8,0 c 0.313643,-5.14e-4 0.626909,-0.07613 0.90625,-0.21875 l 1,-0.5 c 0.373712,-0.190262 0.684738,-0.501288 0.875,-0.875 l 0.5,-1 C 16.92387,13.126909 16.999486,12.813643 17,12.5 l 0,-7 C 17.005923,5.3108038 16.984809,5.1207816 16.9375,4.9375 16.469796,3.3005376 15.148925,2.2721859 13.8125,1.6875 12.476075,1.1028141 10.983333,0.875 9.5,0.875 z"/><path style="color:#000;fill:#000363;fill-opacity:1;fill-rule:nonzero;stroke:none;stroke-width:2;marker:none;visibility:visible;display:inline;overflow:visible;enable-background:accumulate" id="path24869" d="M 9.5 2.875 C 7 2.875 4.5 3.75 4 5.5 L 4 12.5 L 4.5 13.5 L 5.5 14 L 13.5 14 L 14.5 13.5 L 15 12.5 L 15 5.5 C 14.5 3.75 12 2.875 9.5 2.875 z M 6.5 5 L 7.5 5 L 8 5.5 L 8 8.5 L 7.5 9 L 5.5 9 L 5 8.5 L 5 6 L 5.5 5.5 L 6.5 5 z M 9 5 L 10 5 C 10.277 5 10.5 5.223 10.5 5.5 L 10.5 8.5 C 10.5 8.777 10.277 9 10 9 L 9 9 C 8.723 9 8.5 8.777 8.5 8.5 L 8.5 5.5 C 8.5 5.223 8.723 5 9 5 z M 11.5 5 L 12.5 5 L 13.5 5.5 L 14 6 L 14 8.5 L 13.5 9 L 11.5 9 L 11 8.5 L 11 5.5 L 11.5 5 z M 7.25 10.5 C 7.66421 10.5 8 10.835786 8 11.25 C 8 11.664214 7.66421 12 7.25 12 C 6.83579 12 6.5 11.664214 6.5 11.25 C 6.5 10.835786 6.83579 10.5 7.25 10.5 z M 11.75 10.5 C 12.16421 10.5 12.5 10.835786 12.5 11.25 C 12.5 11.664214 12.16421 12 11.75 12 C 11.33579 12 11 11.664214 11 11.25 C 11 10.835786 11.33579 10.5 11.75 10.5 z"/><rect style="opacity:.5;color:#000;fill:none;stroke:none;stroke-width:2;marker:none;visibility:visible;display:inline;overflow:visible;enable-background:accumulate" id="rect24871" width="18" height="18" x="0" y="0"/></svg>