<svg xmlns="http://www.w3.org/2000/svg" xmlns:svg="http://www.w3.org/2000/svg" id="svg3122" width="18" height="18" version="1.1"><metadata id="metadata3127"/><g id="layer1" transform="translate(0,-1034.3622)"><rect id="rect4250" width="18" height="18" x="0" y="1034.362" style="color:#000;fill:#fff;fill-opacity:0;fill-rule:evenodd;stroke:none;stroke-width:1px;marker:none;visibility:visible;display:inline;overflow:visible;enable-background:accumulate"/><path style="font-size:medium;font-style:normal;font-variant:normal;font-weight:400;font-stretch:normal;text-indent:0;text-align:start;text-decoration:none;line-height:normal;letter-spacing:normal;word-spacing:normal;text-transform:none;direction:ltr;block-progression:tb;writing-mode:lr-tb;text-anchor:start;baseline-shift:baseline;color:#000;fill:#fefef1;fill-opacity:1;fill-rule:evenodd;stroke:none;stroke-width:4;marker:none;visibility:visible;display:inline;overflow:visible;enable-background:accumulate;font-family:Sans;-inkscape-font-specification:Sans" id="rect4207" d="m 5,1035.375 c -2.1814055,0 -4,1.8186 -4,4 l 0,8 c 0,2.1814 1.8185945,4 4,4 l 8,0 c 2.181405,0 4,-1.8186 4,-4 l 0,-8 c 0,-2.1814 -1.818595,-4 -4,-4 z"/><path style="color:#000;fill:#000363;fill-opacity:1;fill-rule:evenodd;stroke:none;stroke-width:1px;marker:none;visibility:visible;display:inline;overflow:visible;enable-background:accumulate" id="rect3420" d="m 4,1037.3622 c -0.554,0 -1,0.446 -1,1 l 0,10 c 0,0.554 0.446,1 1,1 l 10,0 c 0.554,0 1,-0.446 1,-1 l 0,-10 c 0,-0.554 -0.446,-1 -1,-1 l -10,0 z m 0,1 3.125,0 1.875,6.8125 1.875,-6.8125 3.125,0 0,10 -1.9375,0 0,-7.875 -2.0625,7.875 -2,0 -2.0625,-7.875 0,7.875 -1.9375,0 0,-10 z"/></g></svg>