<svg xmlns="http://www.w3.org/2000/svg" xmlns:svg="http://www.w3.org/2000/svg" id="svg3122" width="12" height="12" version="1.1"><metadata id="metadata3127"/><g id="layer1" transform="translate(0,-1040.3622)"><rect id="rect4241" width="12" height="12" x="0" y="1040.362" rx="0" ry="0" style="color:#000;fill:#fff;fill-opacity:0;fill-rule:evenodd;stroke:none;stroke-width:1px;marker:none;visibility:visible;display:inline;overflow:visible;enable-background:accumulate"/><path style="font-size:medium;font-style:normal;font-variant:normal;font-weight:400;font-stretch:normal;text-indent:0;text-align:start;text-decoration:none;line-height:normal;letter-spacing:normal;word-spacing:normal;text-transform:none;direction:ltr;block-progression:tb;writing-mode:lr-tb;text-anchor:start;baseline-shift:baseline;color:#000;fill:#fefef1;fill-opacity:1;fill-rule:evenodd;stroke:none;stroke-width:2;marker:none;visibility:visible;display:inline;overflow:visible;enable-background:accumulate;font-family:Sans;-inkscape-font-specification:Sans" id="rect3426" d="m 3.5,1041.375 c -1.3677028,0 -2.5,1.1323 -2.5,2.5 l 0,5 c 0,1.3677 1.1322972,2.5 2.5,2.5 l 5,0 c 1.3677028,0 2.5,-1.1323 2.5,-2.5 l 0,-5 c 0,-1.3677 -1.1322972,-2.5 -2.5,-2.5 z"/><path style="color:#000;fill:#000363;fill-opacity:1;fill-rule:evenodd;stroke:none;stroke-width:1px;marker:none;visibility:visible;display:inline;overflow:visible;enable-background:accumulate" id="rect3416" d="m 3,1042.3622 c -0.5540096,0 -1,0.446 -1,1 l 0,6 c 0,0.554 0.4459904,1 1,1 l 6,0 c 0.5540096,0 1,-0.446 1,-1 l 0,-6 c 0,-0.554 -0.4459904,-1 -1,-1 l -6,0 z m 0,1 1.875,0 1.125,4.0938 1.125,-4.0938 1.875,0 0,6 -1.15625,0 0,-4.7187 -1.25,4.7187 -1.1875,0 -1.25,-4.7187 0,4.7187 -1.15625,0 0,-6 z"/></g></svg>